<svg width="51" height="50" viewBox="0 0 51 50" fill="none" xmlns="http://www.w3.org/2000/svg">
<path d="M25.2746 3.72559C13.1994 3.7207 3.41913 13.4961 3.41913 25.5615C3.41913 35.1025 9.53729 43.2129 18.0578 46.1914C19.2053 46.4795 19.0295 45.6641 19.0295 45.1074V41.3232C12.4035 42.0996 12.1349 37.7149 11.6906 36.9824C10.7922 35.4492 8.66815 35.0586 9.30292 34.3262C10.8117 33.5498 12.3498 34.5215 14.132 37.1533C15.4211 39.0625 17.9357 38.7402 19.2101 38.4229C19.4885 37.2754 20.0842 36.25 20.9045 35.4541C14.0392 34.2236 11.1779 30.0342 11.1779 25.0537C11.1779 22.6367 11.9738 20.415 13.5363 18.6231C12.5402 15.6689 13.6291 13.1397 13.7756 12.7637C16.6125 12.5098 19.5617 14.7949 19.7912 14.9756C21.4025 14.541 23.2433 14.3115 25.3039 14.3115C27.3742 14.3115 29.2199 14.5508 30.8459 14.9902C31.3976 14.5703 34.132 12.6074 36.7687 12.8467C36.9103 13.2227 37.9748 15.6934 37.0373 18.6084C38.6193 20.4053 39.425 22.6465 39.425 25.0684C39.425 30.0586 36.5441 34.2529 29.6594 35.4639C30.2491 36.0438 30.7173 36.7354 31.0367 37.4983C31.3561 38.2612 31.5203 39.0802 31.5197 39.9072V45.4004C31.5588 45.8399 31.5197 46.2744 32.2521 46.2744C40.8996 43.3594 47.1252 35.1904 47.1252 25.5664C47.1252 13.4961 37.34 3.72559 25.2746 3.72559Z" fill="#D24136"/>
<path d="M48.7316 25C48.7316 37.9442 38.2383 48.4375 25.2941 48.4375C12.35 48.4375 1.85663 37.9442 1.85663 25C1.85663 12.0558 12.35 1.5625 25.2941 1.5625C38.2383 1.5625 48.7316 12.0558 48.7316 25ZM4.32059 25C4.32059 36.5834 13.7108 45.9735 25.2941 45.9735C36.8775 45.9735 46.2677 36.5834 46.2677 25C46.2677 13.4166 36.8775 4.02646 25.2941 4.02646C13.7108 4.02646 4.32059 13.4166 4.32059 25Z" fill="#D24136"/>
</svg>
