<svg width="51" height="50" viewBox="0 0 51 50" fill="none" xmlns="http://www.w3.org/2000/svg">
<path d="M25.8837 18.4912C22.2997 18.4912 19.3749 21.416 19.3749 25C19.3749 28.584 22.2997 31.5088 25.8837 31.5088C29.4677 31.5088 32.3925 28.584 32.3925 25C32.3925 21.416 29.4677 18.4912 25.8837 18.4912ZM45.4052 25C45.4052 22.3047 45.4296 19.6338 45.2783 16.9433C45.1269 13.8183 44.414 11.0449 42.1288 8.75975C39.8388 6.46971 37.0702 5.76171 33.9452 5.61034C31.2499 5.45897 28.579 5.48339 25.8886 5.48339C23.1933 5.48339 20.5224 5.45897 17.832 5.61034C14.707 5.76171 11.9335 6.4746 9.64836 8.75975C7.35833 11.0498 6.65032 13.8183 6.49895 16.9433C6.34758 19.6387 6.372 22.3096 6.372 25C6.372 27.6904 6.34758 30.3662 6.49895 33.0566C6.65032 36.1816 7.36321 38.9551 9.64836 41.2402C11.9384 43.5303 14.707 44.2383 17.832 44.3896C20.5273 44.541 23.1982 44.5166 25.8886 44.5166C28.5839 44.5166 31.2548 44.541 33.9452 44.3896C37.0702 44.2383 39.8437 43.5254 42.1288 41.2402C44.4189 38.9502 45.1269 36.1816 45.2783 33.0566C45.4345 30.3662 45.4052 27.6953 45.4052 25ZM25.8837 35.0146C20.3417 35.0146 15.8691 30.542 15.8691 25C15.8691 19.458 20.3417 14.9853 25.8837 14.9853C31.4257 14.9853 35.8984 19.458 35.8984 25C35.8984 30.542 31.4257 35.0146 25.8837 35.0146ZM36.3085 16.9141C35.0146 16.9141 33.9697 15.8691 33.9697 14.5752C33.9697 13.2812 35.0146 12.2363 36.3085 12.2363C37.6025 12.2363 38.6474 13.2812 38.6474 14.5752C38.6478 14.8824 38.5875 15.1867 38.4701 15.4707C38.3527 15.7546 38.1805 16.0126 37.9632 16.2299C37.746 16.4471 37.488 16.6194 37.204 16.7368C36.9201 16.8542 36.6158 16.9144 36.3085 16.9141Z" fill="#D24136"/>
<path d="M49.321 25C49.321 37.9442 38.8277 48.4375 25.8835 48.4375C12.9393 48.4375 2.44598 37.9442 2.44598 25C2.44598 12.0558 12.9393 1.5625 25.8835 1.5625C38.8277 1.5625 49.321 12.0558 49.321 25ZM8.11983 25C8.11983 34.8106 16.0729 42.7636 25.8835 42.7636C35.6941 42.7636 43.6471 34.8106 43.6471 25C43.6471 15.1894 35.6941 7.23635 25.8835 7.23635C16.0729 7.23635 8.11983 15.1894 8.11983 25Z" fill="#D24136"/>
</svg>
