<svg width="20" height="20" viewBox="0 0 20 20" fill="none" xmlns="http://www.w3.org/2000/svg">
<path d="M13.9231 19V16.4205C13.9577 15.9919 13.8982 15.561 13.7486 15.1566C13.599 14.7521 13.3627 14.3832 13.0554 14.0746C15.9538 13.76 19 12.6905 19 7.78302C18.9997 6.52815 18.504 5.3214 17.6154 4.41254C18.0361 3.31467 18.0064 2.10115 17.5323 1.02408C17.5323 1.02408 16.4431 0.709503 13.9231 2.3543C11.8074 1.79599 9.57723 1.79599 7.46153 2.3543C4.94153 0.709503 3.8523 1.02408 3.8523 1.02408C3.37818 2.10115 3.34843 3.31467 3.76922 4.41254C2.87395 5.32814 2.3777 6.5458 2.38461 7.80999C2.38461 12.6815 5.43075 13.751 8.32921 14.1016C8.02552 14.4072 7.79131 14.7715 7.64181 15.171C7.49231 15.5706 7.43088 15.9963 7.46153 16.4205V19M7.46154 17.2023C4.69231 18.077 2.38462 17.2023 1 14.5059" stroke="#596362" stroke-width="2" stroke-linecap="round" stroke-linejoin="round"/>
</svg>
