<svg width="51" height="50" viewBox="0 0 51 50" fill="none" xmlns="http://www.w3.org/2000/svg">
<path d="M25.5911 1C12.3361 1 1.59106 11.745 1.59106 25C1.59106 38.255 12.3361 49 25.5911 49C38.8461 49 49.5911 38.255 49.5911 25C49.5911 11.745 38.8461 1 25.5911 1ZM19.7161 34.9475H14.8561V19.3075H19.7161V34.9475ZM17.2561 17.3875C15.7211 17.3875 14.7286 16.3 14.7286 14.955C14.7286 13.5825 15.7511 12.5275 17.3186 12.5275C18.8861 12.5275 19.8461 13.5825 19.8761 14.955C19.8761 16.3 18.8861 17.3875 17.2561 17.3875ZM37.4661 34.9475H32.6061V26.28C32.6061 24.2625 31.9011 22.8925 30.1436 22.8925C28.8011 22.8925 28.0036 23.82 27.6511 24.7125C27.5211 25.03 27.4886 25.48 27.4886 25.9275V34.945H22.6261V24.295C22.6261 22.3425 22.5636 20.71 22.4986 19.305H26.7211L26.9436 21.4775H27.0411C27.6811 20.4575 29.2486 18.9525 31.8711 18.9525C35.0686 18.9525 37.4661 21.095 37.4661 25.7V34.9475Z" fill="#D24136"/>
</svg>
