<svg width="40" height="41" viewBox="0 0 40 41" fill="none" xmlns="http://www.w3.org/2000/svg">
<mask id="path-1-outside-1_360_198" maskUnits="userSpaceOnUse" x="0" y="0" width="40" height="41" fill="black">
<rect fill="white" width="40" height="41"/>
<path d="M4 10.6532C4 6.97875 6.71078 4 10.0547 4H35V30.3468C35 34.0212 32.2892 37 28.9453 37H4V10.6532Z"/>
<path d="M14.5614 26.2165C13.6023 26.2165 12.7741 25.9769 12.0766 25.4979C11.3791 25.0082 10.8414 24.3535 10.4636 23.5339C10.0955 22.7142 9.9114 21.804 9.9114 20.8034C9.9114 19.8027 10.0955 18.8926 10.4636 18.0729C10.8414 17.2532 11.3791 16.6039 12.0766 16.1248C12.7741 15.6352 13.6023 15.3903 14.5614 15.3903C15.288 15.3903 15.9419 15.534 16.5231 15.8215C17.1044 16.0982 17.5984 16.4815 18.0053 16.9711C18.4122 17.4608 18.7173 18.0303 18.9208 18.6797H17.7728C17.5306 18.0303 17.148 17.514 16.6248 17.1308C16.1017 16.7476 15.443 16.556 14.6486 16.556C13.8736 16.556 13.21 16.7476 12.6578 17.1308C12.1153 17.5034 11.7036 18.009 11.4226 18.6477C11.1417 19.2865 11.0012 20.005 11.0012 20.8034C11.0012 21.5911 11.1417 22.3097 11.4226 22.959C11.7036 23.5977 12.1153 24.1087 12.6578 24.4919C13.21 24.8645 13.8736 25.0508 14.6486 25.0508C15.443 25.0508 16.1017 24.8592 16.6248 24.476C17.148 24.0927 17.5306 23.5765 17.7728 22.9271H18.9208C18.7173 23.5658 18.4122 24.1353 18.0053 24.6356C17.5984 25.1253 17.1044 25.5139 16.5231 25.8013C15.9419 26.0781 15.288 26.2165 14.5614 26.2165Z"/>
<path d="M22.0076 26.0887V15.5181H23.0975V21.0269L28.445 15.5181H29.9853L25.8875 19.7655L30.2178 26.0887H28.8519L25.0883 20.5798L23.0975 22.6237V26.0887H22.0076Z"/>
</mask>
<path d="M14.5614 26.2165C13.6023 26.2165 12.7741 25.9769 12.0766 25.4979C11.3791 25.0082 10.8414 24.3535 10.4636 23.5339C10.0955 22.7142 9.9114 21.804 9.9114 20.8034C9.9114 19.8027 10.0955 18.8926 10.4636 18.0729C10.8414 17.2532 11.3791 16.6039 12.0766 16.1248C12.7741 15.6352 13.6023 15.3903 14.5614 15.3903C15.288 15.3903 15.9419 15.534 16.5231 15.8215C17.1044 16.0982 17.5984 16.4815 18.0053 16.9711C18.4122 17.4608 18.7173 18.0303 18.9208 18.6797H17.7728C17.5306 18.0303 17.148 17.514 16.6248 17.1308C16.1017 16.7476 15.443 16.556 14.6486 16.556C13.8736 16.556 13.21 16.7476 12.6578 17.1308C12.1153 17.5034 11.7036 18.009 11.4226 18.6477C11.1417 19.2865 11.0012 20.005 11.0012 20.8034C11.0012 21.5911 11.1417 22.3097 11.4226 22.959C11.7036 23.5977 12.1153 24.1087 12.6578 24.4919C13.21 24.8645 13.8736 25.0508 14.6486 25.0508C15.443 25.0508 16.1017 24.8592 16.6248 24.476C17.148 24.0927 17.5306 23.5765 17.7728 22.9271H18.9208C18.7173 23.5658 18.4122 24.1353 18.0053 24.6356C17.5984 25.1253 17.1044 25.5139 16.5231 25.8013C15.9419 26.0781 15.288 26.2165 14.5614 26.2165Z" fill="#D24136"/>
<path d="M22.0076 26.0887V15.5181H23.0975V21.0269L28.445 15.5181H29.9853L25.8875 19.7655L30.2178 26.0887H28.8519L25.0883 20.5798L23.0975 22.6237V26.0887H22.0076Z" fill="#D24136"/>
<path d="M35 4H39V0H35V4ZM4 37H0V41H4V37ZM12.0766 25.4979L9.77821 28.7717L9.79507 28.7835L9.81204 28.7952L12.0766 25.4979ZM10.4636 23.5339L6.81469 25.1726L6.82271 25.1905L6.83091 25.2083L10.4636 23.5339ZM10.4636 18.0729L6.83091 16.3985L6.82271 16.4163L6.81469 16.4341L10.4636 18.0729ZM12.0766 16.1248L14.3411 19.4221L14.358 19.4104L14.3749 19.3986L12.0766 16.1248ZM16.5231 15.8215L14.7501 19.407L14.7767 19.4202L14.8034 19.4329L16.5231 15.8215ZM18.9208 18.6797V22.6797H24.3657L22.7378 17.4838L18.9208 18.6797ZM17.7728 18.6797L14.025 20.0775L14.9955 22.6797H17.7728V18.6797ZM16.6248 17.1308L18.9887 13.904L18.9887 13.904L16.6248 17.1308ZM12.6578 17.1308L14.9223 20.4281L14.9304 20.4225L14.9384 20.4169L12.6578 17.1308ZM11.4226 22.959L7.7515 24.5473L7.75631 24.5584L7.76119 24.5695L11.4226 22.959ZM12.6578 24.4919L10.3499 27.759L10.385 27.7837L10.4205 27.8077L12.6578 24.4919ZM16.6248 24.476L18.9887 27.7028H18.9887L16.6248 24.476ZM17.7728 22.9271V18.9271H14.9955L14.025 21.5293L17.7728 22.9271ZM18.9208 22.9271L22.7321 24.1411L24.3928 18.9271H18.9208V22.9271ZM18.0053 24.6356L21.0819 27.192L21.0953 27.1757L21.1087 27.1594L18.0053 24.6356ZM16.5231 25.8013L18.2428 29.4128L18.2696 29.4L18.2961 29.3869L16.5231 25.8013ZM22.0076 26.0887H18.0076V30.0887H22.0076V26.0887ZM22.0076 15.5181V11.5181H18.0076V15.5181H22.0076ZM23.0975 15.5181H27.0975V11.5181H23.0975V15.5181ZM23.0975 21.0269H19.0975V30.8905L25.9676 23.813L23.0975 21.0269ZM28.445 15.5181V11.5181H26.7532L25.5748 12.732L28.445 15.5181ZM29.9853 15.5181L32.864 18.2953L39.4025 11.5181H29.9853V15.5181ZM25.8875 19.7655L23.0088 16.9882L20.7446 19.335L22.5872 22.0256L25.8875 19.7655ZM30.2178 26.0887V30.0887H37.8052L33.5181 23.8286L30.2178 26.0887ZM28.8519 26.0887L25.5491 28.3451L26.7402 30.0887H28.8519V26.0887ZM25.0883 20.5798L28.3911 18.3234L25.6336 14.2872L22.2229 17.7889L25.0883 20.5798ZM23.0975 22.6237L20.2321 19.8327L19.0975 20.9976V22.6237H23.0975ZM23.0975 26.0887V30.0887H27.0975V26.0887H23.0975ZM10.0547 8H35V0H10.0547V8ZM31 4V30.3468H39V4H31ZM28.9453 33H4V41H28.9453V33ZM8 37V10.6532H0V37H8ZM31 30.3468C31 32.1753 29.7336 33 28.9453 33V41C34.8449 41 39 35.8672 39 30.3468H31ZM10.0547 0C4.15514 0 0 5.13282 0 10.6532H8C8 8.82468 9.26642 8 10.0547 8V0ZM14.5614 22.2165C14.4162 22.2165 14.3471 22.1986 14.3321 22.1943C14.3211 22.1911 14.3303 22.1932 14.3411 22.2006L9.81204 28.7952C11.2625 29.7914 12.9056 30.2165 14.5614 30.2165V22.2165ZM14.3749 22.2241C14.2901 22.1646 14.1965 22.0769 14.0963 21.8595L6.83091 25.2083C7.48631 26.6302 8.46803 27.8519 9.77821 28.7717L14.3749 22.2241ZM14.1125 21.8951C14.0008 21.6465 13.9114 21.3036 13.9114 20.8034H5.9114C5.9114 22.3044 6.19008 23.7819 6.81469 25.1726L14.1125 21.8951ZM13.9114 20.8034C13.9114 20.3032 14.0008 19.9602 14.1125 19.7117L6.81469 16.4341C6.19008 17.8249 5.9114 19.3023 5.9114 20.8034H13.9114ZM14.0963 19.7473C14.1934 19.5366 14.2773 19.4659 14.3411 19.4221L9.81204 12.8276C8.48084 13.7418 7.48942 14.9698 6.83091 16.3985L14.0963 19.7473ZM14.3749 19.3986C14.372 19.4007 14.3663 19.4042 14.3592 19.4076C14.3523 19.411 14.3499 19.4113 14.3548 19.4099C14.3627 19.4075 14.4239 19.3903 14.5614 19.3903V11.3903C12.8871 11.3903 11.2317 11.8306 9.77821 12.8511L14.3749 19.3986ZM14.5614 19.3903C14.6602 19.3903 14.716 19.4 14.7382 19.4049C14.7587 19.4094 14.7595 19.4117 14.7501 19.407L18.2961 12.2359C17.1002 11.6445 15.8282 11.3903 14.5614 11.3903V19.3903ZM14.8034 19.4329C14.8673 19.4633 14.8966 19.4888 14.9287 19.5275L21.0819 14.4148C20.3002 13.4741 19.3414 12.7331 18.2428 12.21L14.8034 19.4329ZM14.9287 19.5275C14.9801 19.5892 15.0453 19.689 15.1037 19.8755L22.7378 17.4838C22.3894 16.3717 21.8443 15.3324 21.0819 14.4148L14.9287 19.5275ZM18.9208 14.6797H17.7728V22.6797H18.9208V14.6797ZM21.5206 17.2819C21.0252 15.9536 20.1857 14.7809 18.9887 13.904L14.261 20.3576C14.2015 20.314 14.1407 20.2548 14.0906 20.1872C14.0418 20.1214 14.0247 20.0768 14.025 20.0775L21.5206 17.2819ZM18.9887 13.904C17.6377 12.9143 16.0982 12.556 14.6486 12.556V20.556C14.7259 20.556 14.7068 20.5654 14.6212 20.5405C14.5286 20.5136 14.3974 20.4575 14.261 20.3576L18.9887 13.904ZM14.6486 12.556C13.1871 12.556 11.6976 12.9283 10.3772 13.8447L14.9384 20.4169C14.8472 20.4803 14.7538 20.5212 14.6793 20.5427C14.6095 20.5628 14.5914 20.556 14.6486 20.556V12.556ZM10.3933 13.8335C9.1998 14.6532 8.32293 15.7601 7.76119 17.0372L15.0841 20.2582C15.0901 20.2447 15.0802 20.2706 15.044 20.3151C15.0067 20.3609 14.9626 20.4004 14.9223 20.4281L10.3933 13.8335ZM7.76119 17.0372C7.22702 18.2517 7.00124 19.5301 7.00124 20.8034H15.0012C15.0012 20.4799 15.0564 20.3212 15.0841 20.2582L7.76119 17.0372ZM7.00124 20.8034C7.00124 22.0753 7.23025 23.3425 7.7515 24.5473L15.0938 21.3707C15.0532 21.2768 15.0012 21.1069 15.0012 20.8034H7.00124ZM7.76119 24.5695C8.31913 25.838 9.18367 26.9351 10.3499 27.759L14.9657 21.2249C14.9934 21.2445 15.0273 21.2749 15.0568 21.3116C15.0856 21.3473 15.0917 21.3657 15.0841 21.3485L7.76119 24.5695ZM10.4205 27.8077C11.7364 28.6956 13.21 29.0508 14.6486 29.0508V21.0508C14.5819 21.0508 14.5901 21.0429 14.6508 21.06C14.716 21.0783 14.8047 21.1151 14.8951 21.1761L10.4205 27.8077ZM14.6486 29.0508C16.0982 29.0508 17.6377 28.6924 18.9887 27.7028L14.261 21.2492C14.3974 21.1493 14.5286 21.0932 14.6212 21.0663C14.7068 21.0414 14.7259 21.0508 14.6486 21.0508V29.0508ZM18.9887 27.7028C20.1857 26.8259 21.0252 25.6532 21.5206 24.3249L14.025 21.5293C14.0247 21.53 14.0418 21.4854 14.0906 21.4195C14.1407 21.352 14.2015 21.2928 14.261 21.2492L18.9887 27.7028ZM17.7728 26.9271H18.9208V18.9271H17.7728V26.9271ZM15.1094 21.7131C15.0518 21.8939 14.9805 22.0153 14.902 22.1119L21.1087 27.1594C21.8438 26.2553 22.3828 25.2377 22.7321 24.1411L15.1094 21.7131ZM14.9287 22.0793C14.8863 22.1304 14.8392 22.1717 14.7501 22.2157L18.2961 29.3869C19.3696 28.8561 20.3105 28.1203 21.0819 27.192L14.9287 22.0793ZM14.8034 22.1898C14.8077 22.1878 14.7993 22.1928 14.7686 22.1993C14.7363 22.2062 14.6702 22.2165 14.5614 22.2165V30.2165C15.8061 30.2165 17.059 29.9764 18.2428 29.4128L14.8034 22.1898ZM26.0076 26.0887V15.5181H18.0076V26.0887H26.0076ZM22.0076 19.5181H23.0975V11.5181H22.0076V19.5181ZM19.0975 15.5181V21.0269H27.0975V15.5181H19.0975ZM25.9676 23.813L31.3151 18.3041L25.5748 12.732L20.2273 18.2409L25.9676 23.813ZM28.445 19.5181H29.9853V11.5181H28.445V19.5181ZM27.1066 12.7408L23.0088 16.9882L28.7662 22.5428L32.864 18.2953L27.1066 12.7408ZM22.5872 22.0256L26.9175 28.3488L33.5181 23.8286L29.1878 17.5054L22.5872 22.0256ZM30.2178 22.0887H28.8519V30.0887H30.2178V22.0887ZM32.1547 23.8323L28.3911 18.3234L21.7855 22.8363L25.5491 28.3451L32.1547 23.8323ZM22.2229 17.7889L20.2321 19.8327L25.9629 25.4147L27.9537 23.3708L22.2229 17.7889ZM19.0975 22.6237V26.0887H27.0975V22.6237H19.0975ZM23.0975 22.0887H22.0076V30.0887H23.0975V22.0887Z" fill="#D24136" mask="url(#path-1-outside-1_360_198)"/>
</svg>
