<svg width="18" height="18" viewBox="0 0 18 18" fill="none" xmlns="http://www.w3.org/2000/svg">
<path d="M16.7771 1.00756C16.7823 1.00855 16.7869 1.00958 16.791 1.01062C16.8271 1.03012 16.8558 1.04616 16.8841 1.06366C16.8985 1.07256 16.9089 1.07952 16.9159 1.08444C16.9194 1.08797 16.923 1.09146 16.9265 1.0949C16.944 1.11764 16.9773 1.17844 17 1.34274V6.42857C17 6.58745 16.8732 6.71429 16.7143 6.71429C16.5554 6.71429 16.4286 6.58745 16.4286 6.42857V4.39152V1.97831L14.7217 3.6842L7.91542 10.4864L7.91522 10.4866C7.80351 10.5984 7.62506 10.5984 7.51336 10.4866C7.40165 10.3749 7.40165 10.1965 7.51336 10.0848L7.51357 10.0846L14.3158 3.27833L16.0217 1.57143H13.6085H11.5714C11.4132 1.57143 11.2857 1.444 11.2857 1.28571C11.2857 1.12743 11.4132 1 11.5714 1H16.6781C16.7272 1 16.7585 1.00403 16.7771 1.00756ZM2.57143 2.85714H1.57143V3.85714V15.4286V16.4286H2.57143H14.1429H15.1429V15.4286V11.5714C15.1429 11.4126 15.2697 11.2857 15.4286 11.2857C15.5874 11.2857 15.7143 11.4126 15.7143 11.5714V15.4286C15.7143 16.2946 15.0089 17 14.1429 17H2.57143C1.70391 17 1 16.2951 1 15.4286V3.85714C1 2.98911 1.7034 2.28571 2.57143 2.28571H6.42857C6.58684 2.28571 6.71429 2.41315 6.71429 2.57143C6.71429 2.7303 6.58745 2.85714 6.42857 2.85714H2.57143Z" stroke="#596362" stroke-width="2"/>
</svg>
